<svg xmlns="http://www.w3.org/2000/svg" width="216" height="34" viewBox="0 0 216 34">
    <defs>
        <linearGradient id="prefix__a" x1="50%" x2="50%" y1="0%" y2="50%">
            <stop offset="0%" stop-color="#021E3F"/>
            <stop offset="0%" stop-color="#022045"/>
            <stop offset="100%" stop-color="#002A67"/>
        </linearGradient>
        <linearGradient id="prefix__b" x1="50%" x2="50%" y1="97.254%" y2="50%">
            <stop offset="0%" stop-color="#021E3F"/>
            <stop offset="100%" stop-color="#002A67"/>
        </linearGradient>
    </defs>
    <g fill="none">
        <g fill="#1E3F6F">
            <path d="M6.636 16.616c-3.697 0-6.43-2.896-6.43-6.453C.207 6.606 2.94 3.64 6.66 3.64c2.356 0 3.816.872 4.97 2.144L9.863 7.69c-.872-.918-1.79-1.554-3.227-1.554-2.073 0-3.58 1.79-3.58 3.98 0 2.237 1.53 4.027 3.72 4.027 1.344 0 2.333-.636 3.228-1.554l1.719 1.695c-1.224 1.366-2.661 2.332-5.087 2.332M17.13 16.616h-2.848V3.663h2.849v3.038c.777-1.86 2.214-3.133 4.404-3.038v3.015h-.165c-2.496 0-4.24 1.625-4.24 4.922v5.016zM36.452 3.639L30.155 20.103 27.266 20.103 28.642 16.62 23.247 3.639 26.285 3.639 29.966 13.227 33.5 3.639zM44.859 6.112c-1.931 0-3.627 1.578-3.627 4.004 0 2.426 1.696 4.003 3.627 4.003 1.955 0 3.556-1.53 3.556-4.003 0-2.45-1.625-4.004-3.556-4.004m.659 10.48c-2.048 0-3.344-1.036-4.216-2.19v5.7h-2.85V3.64h2.85V5.97c.919-1.295 2.215-2.33 4.216-2.33 2.944 0 5.794 2.33 5.794 6.476 0 4.145-2.826 6.476-5.794 6.476M57.559 6.348v6.098c0 1.106.562 1.553 1.53 1.553h1.118v2.545h-1.95c-2.073-.006-3.547-.928-3.547-3.65V6.347h-1.582V3.901h1.582V.485h2.849v3.416h2.648v2.447h-2.648zM69.22 6.136c-2.285 0-3.745 1.79-3.745 3.98 0 2.214 1.578 4.027 3.792 4.027 2.307 0 3.768-1.79 3.768-3.98 0-2.214-1.578-4.027-3.815-4.027m0 10.48c-3.792 0-6.595-2.896-6.595-6.453 0-3.58 2.826-6.524 6.642-6.524 3.815 0 6.618 2.897 6.618 6.477 0 3.557-2.827 6.5-6.665 6.5M81.1 14.003v1.436c0 .06-.03.116-.082.144l-1.243.718c-.052.03-.116.03-.165 0l-1.246-.718c-.05-.028-.083-.083-.083-.144v-1.436c0-.058.033-.113.083-.144l1.246-.718c.049-.03.113-.03.165 0l1.243.718c.053.03.083.086.083.144M103.13 6.136c-2.285 0-3.745 1.79-3.745 3.98 0 2.214 1.578 4.027 3.792 4.027 2.307 0 3.767-1.79 3.767-3.98 0-2.214-1.577-4.027-3.814-4.027m0 10.48c-3.792 0-6.595-2.896-6.595-6.453 0-3.58 2.826-6.524 6.642-6.524 3.815 0 6.618 2.897 6.618 6.477 0 3.557-2.827 6.5-6.665 6.5M89.777 16.602c-3.697-.071-6.373-3.02-6.304-6.576.068-3.555 2.856-6.47 6.576-6.398 2.355.045 3.798.944 4.928 2.238l-1.803 1.873c-.853-.935-1.759-1.588-3.196-1.616-2.072-.04-3.614 1.72-3.656 3.91-.043 2.238 1.454 4.057 3.643 4.099 1.343.026 2.344-.591 3.256-1.492l1.687 1.728c-1.25 1.342-2.705 2.28-5.13 2.234M126.733 3.64c2.71 0 4.357 1.718 4.357 4.756v8.22h-2.849V9.268c0-1.978-.919-3.038-2.52-3.038-1.554 0-2.662 1.083-2.662 3.085v7.301h-2.849V9.244c0-1.93-.943-3.014-2.52-3.014-1.578 0-2.662 1.178-2.662 3.11v7.276h-2.85V3.64h2.85v2.144c.801-1.107 1.885-2.144 3.792-2.144 1.79 0 3.038.872 3.697 2.19 1.014-1.318 2.332-2.19 4.216-2.19" transform="translate(-1) translate(37 8)"/>
        </g>
        <path fill="#1E3F6F" d="M19.494 26.978h-1.983l-2.375-2.187v-1.112l2.463-2.363v-3.73l3.223-2.096 3.677 2.767-5.005 8.72zm-8.226-5.89l.367-3.514-1.2-3.134h7.126l-1.174 3.134.34 3.5-2.742.014h-2.717zm1.618 3.703l-2.376 2.212H8.501l-5.029-8.746 3.69-2.742 3.26 2.072v3.729l2.464 2.363v1.112zM8.464 7.98H19.47l1.327 5.612H7.187l1.277-5.611zM13.985 1L0 9.074v16.149l13.985 8.075 13.986-8.075V9.073L13.985 1z" transform="translate(-1)"/>
        <path fill="url(#prefix__a)" d="M0 8.776L13.985.702v6.982H8.464l-1.277 5.611h6.798v.847h-3.55l1.2 3.134-.366 3.514h2.716V33L0 24.925V8.776zm12.886 15.717v-1.112l-2.464-2.363v-3.729l-3.261-2.072-3.689 2.742 5.029 8.746h2.009l2.376-2.212z" transform="translate(-1) translate(0 .298)"/>
        <path fill="url(#prefix__b)" d="M6.494 26.68l5.006-8.721-3.678-2.767L4.6 17.289v3.729l-2.464 2.363v1.112l2.375 2.187h1.983zM.985.702l13.986 8.074v16.149L.985 33V20.79l2.743-.013-.341-3.501 1.175-3.134H.985v-.847h6.812L6.47 7.684H.985V.702z" transform="translate(-1) translate(13 .298)"/>
        <path fill="#1199FA" d="M180.899 24v-5.175h3.197c3.542 0 6.44-1.886 6.44-5.497v-.046c0-3.243-2.346-5.382-6.118-5.382h-6.348V24h2.829zm3.289-7.728h-3.289v-5.796h3.289c2.116 0 3.473.989 3.473 2.875v.046c0 1.679-1.334 2.875-3.473 2.875zm12.19 7.981c1.863 0 3.128-.782 3.956-1.771V24h2.714v-7.199c0-1.587-.414-2.875-1.311-3.749-.851-.874-2.208-1.357-4.025-1.357-1.932 0-3.243.391-4.577.989l.736 2.185c1.104-.46 2.116-.759 3.473-.759 1.955 0 3.013.92 3.013 2.645v.299c-.943-.299-1.909-.506-3.266-.506-2.967 0-5.014 1.288-5.014 3.91v.046c0 2.438 2.024 3.749 4.301 3.749zm.782-2.024c-1.334 0-2.369-.667-2.369-1.84v-.046c0-1.265 1.058-2.024 2.852-2.024 1.104 0 2.047.207 2.76.483v.828c0 1.541-1.403 2.599-3.243 2.599zm11.247 5.52c1.955 0 3.036-.92 4.002-3.404l4.83-12.489h-2.898l-3.151 9.016-3.427-9.016h-2.99l5.06 12.167c-.46 1.035-.943 1.38-1.725 1.38-.575 0-1.127-.184-1.633-.46l-.943 2.07c.851.46 1.725.736 2.875.736z" transform="translate(-1)"/>
    </g>
</svg>